<svg width="531" height="384" viewBox="0 0 531 384" fill="none" xmlns="http://www.w3.org/2000/svg">
<g clip-path="url(#clip0)">
<path d="M78.7202 272.206C78.2845 271.547 77.7096 270.991 77.0358 270.577C76.362 270.164 75.6058 269.903 74.8205 269.814C74.0351 269.725 73.2397 269.808 72.4903 270.06C71.7408 270.311 71.0556 270.724 70.4828 271.269L53.4093 262.454L54.4707 272.384L70.5213 279.232C71.5002 280.134 72.7757 280.645 74.1063 280.669C75.4369 280.693 76.73 280.228 77.7406 279.362C78.7512 278.496 79.4092 277.289 79.5897 275.97C79.7702 274.652 79.4609 273.312 78.7202 272.206H78.7202Z" fill="#A0616A"/>
<path d="M63.5469 276.203C63.2379 276.345 62.9026 276.42 62.5628 276.424C62.2229 276.428 61.8861 276.36 61.5742 276.224L45.3568 269.188C39.8116 266.783 35.3287 262.445 32.7418 256.981L24.2159 238.981C23.5867 238.172 23.123 237.248 22.8514 236.26C22.5797 235.272 22.5054 234.24 22.6327 233.223C22.76 232.207 23.0864 231.225 23.5932 230.335C24.1001 229.444 24.7775 228.663 25.5866 228.034C26.3957 227.406 27.3207 226.943 28.3088 226.673C29.2968 226.402 30.3285 226.329 31.3447 226.458C32.361 226.586 33.342 226.914 34.2316 227.422C35.1211 227.93 35.9019 228.608 36.5291 229.419L51.5155 257.23L65.3535 267.685C65.7496 267.986 66.0439 268.401 66.1964 268.874C66.349 269.348 66.3526 269.857 66.2066 270.332L64.8484 274.72C64.7025 275.19 64.4168 275.605 64.0291 275.909C63.8806 276.026 63.7187 276.125 63.5469 276.203Z" fill="#CCCCCC"/>
<path d="M23.8407 217.811C31.1341 217.811 37.0465 211.897 37.0465 204.602C37.0465 197.307 31.1341 191.394 23.8407 191.394C16.5473 191.394 10.6349 197.307 10.6349 204.602C10.6349 211.897 16.5473 217.811 23.8407 217.811Z" fill="#A0616A"/>
<path d="M29.1898 377.878L35.7812 377.877L38.9174 352.446L29.1882 352.447L29.1898 377.878Z" fill="#A0616A"/>
<path d="M48.4943 383.999L27.7773 384L27.7769 375.994L40.4896 375.993C42.6125 375.993 44.6484 376.837 46.1496 378.338C47.6508 379.839 48.4942 381.876 48.4943 383.999L48.4943 383.999Z" fill="#43415C"/>
<path d="M7.68289 377.878L14.2742 377.877L17.4105 352.446L7.68127 352.447L7.68289 377.878Z" fill="#A0616A"/>
<path d="M26.9873 383.999L6.27033 384L6.26996 375.994L18.9826 375.993C21.1055 375.993 23.1415 376.837 24.6426 378.338C26.1438 379.839 26.9872 381.876 26.9873 383.999L26.9873 383.999Z" fill="#43415C"/>
<path d="M5.38097 370.598C5.15384 370.339 4.98477 370.034 4.88508 369.704C4.78539 369.374 4.7574 369.026 4.80296 368.685L16.3439 282.108L45.0173 286.978L48.0775 285.142L40.1643 367.286C40.0984 367.841 39.8434 368.356 39.4422 368.744C39.041 369.133 38.5181 369.371 37.9618 369.418L29.2796 370.142C28.9344 370.171 28.5871 370.125 28.2611 370.008C27.935 369.891 27.6379 369.705 27.3899 369.464C27.1418 369.222 26.9485 368.93 26.8231 368.607C26.6977 368.284 26.6432 367.938 26.6631 367.592L28.9109 328.471C28.9149 328.405 28.894 328.339 28.8525 328.287C28.8109 328.235 28.7515 328.201 28.6858 328.19C28.6201 328.179 28.5528 328.193 28.4968 328.229C28.4409 328.265 28.4003 328.321 28.3829 328.385L17.2622 369.634C17.1231 370.148 16.8191 370.601 16.3969 370.925C15.9748 371.248 15.4579 371.424 14.9261 371.424H7.2014C6.85663 371.424 6.51583 371.351 6.20186 371.208C5.88789 371.066 5.608 370.858 5.38097 370.598Z" fill="#43415C"/>
<path d="M25.2385 288.168C24.9094 287.87 24.4863 287.696 24.0428 287.678C23.5992 287.659 23.1631 287.797 22.8103 288.066L17.0777 292.526C16.7658 292.77 16.3988 292.933 16.0092 293.001C15.6195 293.07 15.219 293.041 14.8428 292.919C14.4666 292.796 14.1261 292.584 13.8514 292.299C13.5767 292.014 13.376 291.666 13.267 291.286C10.4551 281.436 4.08441 256.642 5.65385 239.192C6.54346 229.3 15.0831 221.783 24.6902 222.413C31.2582 222.851 35.5792 226.641 37.5331 233.677C42.3305 250.952 47.6028 282.64 48.6109 288.817C48.6905 289.297 48.6234 289.789 48.4184 290.229C48.2134 290.67 47.8801 291.038 47.4622 291.285C44.7499 292.914 41.6509 293.786 38.4874 293.811C34.6596 293.811 30.07 292.478 25.2385 288.168Z" fill="#CCCCCC"/>
<path d="M27.4015 294.313C27.4657 293.525 27.3563 292.732 27.0812 291.991C26.8061 291.25 26.3718 290.578 25.809 290.023C25.2462 289.468 24.5686 289.043 23.8238 288.778C23.079 288.513 22.2853 288.415 21.4984 288.49L13.5022 271.016L8.21069 279.484L16.6153 294.78C16.8292 296.094 17.5174 297.284 18.5497 298.124C19.5819 298.964 20.8864 299.396 22.2159 299.338C23.5454 299.281 24.8077 298.737 25.7634 297.811C26.7191 296.885 27.302 295.64 27.4015 294.313Z" fill="#A0616A"/>
<path d="M12.996 288.092C12.6654 288.013 12.3552 287.865 12.0856 287.658C11.8159 287.451 11.5928 287.19 11.4307 286.891L3.01119 271.344C0.13183 266.029 -0.719269 259.848 0.616205 253.952L5.01355 234.525C5.01754 233.501 5.22335 232.487 5.61922 231.542C6.01509 230.598 6.59326 229.74 7.32067 229.019C8.04807 228.298 8.91046 227.727 9.85853 227.339C10.8066 226.952 11.8218 226.755 12.846 226.76C13.8702 226.765 14.8834 226.972 15.8276 227.368C16.7718 227.765 17.6286 228.344 18.3489 229.073C19.0693 229.801 19.639 230.664 20.0257 231.613C20.4123 232.562 20.6082 233.577 20.6022 234.602L15.2354 265.736L19.6732 282.505C19.7993 282.986 19.7748 283.494 19.6028 283.961C19.4308 284.427 19.1197 284.83 18.7115 285.114L14.9354 287.728C14.5303 288.008 14.0495 288.158 13.557 288.158C13.368 288.158 13.1797 288.136 12.996 288.092Z" fill="#CCCCCC"/>
<path opacity="0.2" d="M19.5311 247.732L14.692 268.168L21.6818 285.377L16.8427 268.706L19.5311 247.732Z" fill="black"/>
<path d="M16.3048 215.464C15.1301 215.486 13.9627 215.275 12.8701 214.843C12.3894 214.657 11.8903 214.505 11.4105 214.32C7.17271 212.682 4.38113 208.168 4.28114 203.625C4.18116 199.082 6.53328 194.672 10.026 191.766C13.5187 188.861 18.0426 187.369 22.5726 187.024C27.4521 186.652 32.9466 187.89 35.6732 191.954C36.399 193.036 36.9066 194.349 36.4765 195.655C36.3477 196.049 36.1177 196.403 35.8094 196.68C34.5917 197.764 33.3777 196.949 32.1364 196.877C30.4303 196.778 28.8978 198.159 28.347 199.778C27.7963 201.396 28.0387 203.177 28.4834 204.828C28.8222 205.821 29.0358 206.853 29.1192 207.899C29.1551 208.423 29.0565 208.948 28.8327 209.424C28.6089 209.9 28.2673 210.31 27.8403 210.617C26.7742 211.262 25.3741 210.889 24.3073 210.245C23.2405 209.602 22.3187 208.707 21.1664 208.233C20.0141 207.76 18.466 207.865 17.7953 208.915C17.5822 209.297 17.4379 209.713 17.3691 210.145C16.7678 212.885 16.906 212.724 16.3048 215.464L16.3048 215.464Z" fill="#43415C"/>
<path d="M407.199 123.951H80.8307C79.5876 123.952 78.3956 124.446 77.5166 125.326C76.6375 126.205 76.1432 127.397 76.1421 128.64V349.846C76.1432 351.089 76.6375 352.281 77.5166 353.161C78.3956 354.04 79.5876 354.534 80.8307 354.535H407.199C407.877 354.535 408.547 354.388 409.162 354.104C409.777 353.82 410.324 353.406 410.764 352.89C410.801 352.849 410.835 352.806 410.866 352.761C411.146 352.418 411.372 352.036 411.538 351.626C411.774 351.062 411.894 350.457 411.893 349.846V212.144H410.554V349.846C410.554 350.5 410.362 351.14 410 351.685C409.679 352.165 409.242 352.557 408.731 352.825C408.258 353.07 407.732 353.197 407.199 353.196H80.8307C79.9426 353.195 79.0912 352.842 78.4632 352.214C77.8352 351.586 77.4819 350.734 77.4808 349.846V128.64C77.4818 127.752 77.8351 126.9 78.4632 126.272C79.0912 125.644 79.9426 125.291 80.8307 125.29H407.199C408.088 125.29 408.94 125.643 409.569 126.271C410.198 126.899 410.553 127.751 410.554 128.64V158.364H411.893V128.64C411.891 127.396 411.396 126.203 410.516 125.324C409.636 124.445 408.443 123.951 407.199 123.951Z" fill="#C1BDF0"/>
<path d="M411.219 142.748H76.8094V144.089H411.219V142.748Z" fill="#C1BDF0"/>
<path d="M88.2021 138.029C90.4228 138.029 92.2231 136.229 92.2231 134.007C92.2231 131.786 90.4228 129.986 88.2021 129.986C85.9814 129.986 84.1812 131.786 84.1812 134.007C84.1812 136.229 85.9814 138.029 88.2021 138.029Z" fill="#CCCCCC"/>
<path d="M99.7624 138.029C101.983 138.029 103.783 136.229 103.783 134.007C103.783 131.786 101.983 129.986 99.7624 129.986C97.5417 129.986 95.7415 131.786 95.7415 134.007C95.7415 136.229 97.5417 138.029 99.7624 138.029Z" fill="#CCCCCC"/>
<path d="M111.323 138.029C113.543 138.029 115.344 136.229 115.344 134.007C115.344 131.786 113.543 129.986 111.323 129.986C109.102 129.986 107.302 131.786 107.302 134.007C107.302 136.229 109.102 138.029 111.323 138.029Z" fill="#CCCCCC"/>
<path d="M192.087 327.422C190.703 327.416 189.342 327.064 188.128 326.399C186.914 325.734 185.885 324.777 185.134 323.614C184.383 322.451 183.934 321.119 183.828 319.738C183.721 318.358 183.961 316.973 184.524 315.708L194.104 294.331C186.559 287.656 180.522 279.452 176.393 270.263C172.263 261.075 170.137 251.112 170.155 241.038C170.155 201.679 202.168 169.658 241.519 169.658C280.869 169.658 312.882 201.679 312.882 241.038C312.882 280.396 280.869 312.417 241.519 312.417C234.635 312.411 227.789 311.402 221.196 309.423L196.748 325.978C195.374 326.915 193.75 327.419 192.087 327.422ZM241.519 179.618C228.783 179.611 216.361 183.566 205.974 190.937C195.587 198.307 187.749 208.727 183.548 220.752C179.347 232.777 178.99 245.812 182.527 258.049C186.063 270.286 193.319 281.12 203.287 289.048L206.304 291.455L195.997 314.458L219.65 298.442L221.986 299.227C230.423 302.062 239.375 303.028 248.223 302.058C257.07 301.088 265.601 298.206 273.224 293.611C280.847 289.016 287.38 282.817 292.369 275.446C297.359 268.074 300.687 259.705 302.122 250.919C303.557 242.133 303.064 233.14 300.679 224.564C298.293 215.987 294.072 208.032 288.307 201.249C282.542 194.467 275.372 189.019 267.293 185.284C259.214 181.549 250.419 179.615 241.519 179.618Z" fill="#C1BDF0"/>
<path d="M241.519 247.678C247.018 247.678 251.476 243.218 251.476 237.718C251.476 232.217 247.018 227.758 241.519 227.758C236.019 227.758 231.561 232.217 231.561 237.718C231.561 243.218 236.019 247.678 241.519 247.678Z" fill="#C1BDF0"/>
<path d="M213.305 247.678C218.805 247.678 223.263 243.218 223.263 237.718C223.263 232.217 218.805 227.758 213.305 227.758C207.806 227.758 203.347 232.217 203.347 237.718C203.347 243.218 207.806 247.678 213.305 247.678Z" fill="#C1BDF0"/>
<path d="M269.732 247.678C275.232 247.678 279.69 243.218 279.69 237.718C279.69 232.217 275.232 227.758 269.732 227.758C264.233 227.758 259.775 232.217 259.775 237.718C259.775 243.218 264.233 247.678 269.732 247.678Z" fill="#C1BDF0"/>
<path d="M491.924 198.296H397.294C396.153 198.296 395.059 197.843 394.252 197.036C393.446 196.23 392.992 195.135 392.992 193.994C392.992 192.853 393.446 191.759 394.252 190.952C395.059 190.145 396.153 189.692 397.294 189.692H491.924C493.065 189.692 494.159 190.145 494.966 190.952C495.773 191.759 496.226 192.853 496.226 193.994C496.226 195.135 495.773 196.23 494.966 197.036C494.159 197.843 493.065 198.296 491.924 198.296Z" fill="#CCCCCC"/>
<path d="M430.092 180.012H397.294C396.153 180.012 395.059 179.558 394.252 178.751C393.446 177.945 392.992 176.85 392.992 175.709C392.992 174.568 393.446 173.474 394.252 172.667C395.059 171.86 396.153 171.407 397.294 171.407H430.092C431.233 171.407 432.327 171.86 433.133 172.667C433.94 173.474 434.393 174.568 434.393 175.709C434.393 176.85 433.94 177.945 433.133 178.751C432.327 179.558 431.233 180.012 430.092 180.012Z" fill="#CCCCCC"/>
<path d="M354.432 203.539C364.529 203.539 372.713 195.352 372.713 185.254C372.713 175.155 364.529 166.969 354.432 166.969C344.336 166.969 336.151 175.155 336.151 185.254C336.151 195.352 344.336 203.539 354.432 203.539Z" fill="#10A8C8"/>
<path d="M501.41 157.289H330.967C328.544 157.292 326.221 158.256 324.508 159.97C322.794 161.684 321.83 164.008 321.827 166.431V204.077C321.83 206.5 322.794 208.824 324.508 210.538C326.221 212.252 328.544 213.216 330.967 213.219H501.41C503.833 213.216 506.156 212.252 507.869 210.538C509.583 208.824 510.547 206.5 510.55 204.077V166.431C510.547 164.008 509.583 161.684 507.869 159.97C506.156 158.256 503.833 157.292 501.41 157.289ZM509.475 204.077C509.472 206.215 508.622 208.266 507.11 209.778C505.598 211.29 503.548 212.141 501.41 212.144H330.967C328.829 212.141 326.779 211.29 325.267 209.778C323.755 208.266 322.905 206.215 322.902 204.077V166.431C322.905 164.293 323.755 162.242 325.267 160.73C326.779 159.218 328.829 158.367 330.967 158.364H501.41C503.548 158.367 505.598 159.218 507.11 160.73C508.622 162.242 509.472 164.293 509.475 166.431V204.077Z" fill="#C1BDF0"/>
<path d="M509.475 172.347C516.305 172.347 521.842 166.809 521.842 159.978C521.842 153.146 516.305 147.608 509.475 147.608C502.645 147.608 497.109 153.146 497.109 159.978C497.109 166.809 502.645 172.347 509.475 172.347Z" fill="#10A8C8"/>
<path d="M509.095 166.934C509.045 166.884 509.005 166.825 508.978 166.76C508.951 166.694 508.937 166.624 508.938 166.554V152.864C508.938 152.721 508.994 152.584 509.095 152.483C509.196 152.383 509.333 152.326 509.475 152.326C509.618 152.326 509.754 152.383 509.855 152.483C509.956 152.584 510.013 152.721 510.013 152.864V166.554C510.013 166.66 509.981 166.764 509.922 166.852C509.863 166.941 509.779 167.01 509.681 167.05C509.583 167.091 509.475 167.102 509.37 167.081C509.266 167.06 509.17 167.009 509.095 166.934Z" fill="white"/>
<path d="M502.251 160.089C502.176 160.014 502.125 159.918 502.104 159.814C502.084 159.709 502.094 159.601 502.135 159.503C502.176 159.405 502.245 159.321 502.333 159.262C502.421 159.203 502.525 159.171 502.632 159.171H516.319C516.461 159.171 516.598 159.228 516.699 159.329C516.8 159.429 516.856 159.566 516.856 159.709C516.856 159.851 516.8 159.988 516.699 160.089C516.598 160.19 516.461 160.246 516.319 160.246H502.632C502.561 160.247 502.491 160.233 502.426 160.206C502.361 160.179 502.301 160.139 502.251 160.089Z" fill="white"/>
<path d="M524.279 324.385H498.466C498.466 325.127 471.861 325.729 471.861 325.729C471.444 326.044 471.063 326.405 470.727 326.805C469.716 328.01 469.164 329.534 469.167 331.107V332.183C469.168 333.965 469.876 335.675 471.137 336.936C472.397 338.196 474.106 338.905 475.888 338.905H524.279C526.061 338.904 527.77 338.195 529.03 336.935C530.29 335.674 530.998 333.965 531 332.183V331.107C530.998 329.325 530.289 327.617 529.029 326.356C527.769 325.096 526.061 324.387 524.279 324.385Z" fill="#C1BDF0"/>
<path d="M503.845 338.638H496.855V383.813H503.845V338.638Z" fill="#C1BDF0"/>
<path d="M523.739 383.567C523.739 384.323 513.147 383.859 500.081 383.859C487.015 383.859 476.423 384.323 476.423 383.567C476.423 382.812 487.015 376.822 500.081 376.822C513.147 376.822 523.739 382.812 523.739 383.567Z" fill="#C1BDF0"/>
<path d="M502.592 263.846C510.907 263.846 517.647 257.105 517.647 248.788C517.647 240.472 510.907 233.73 502.592 233.73C494.278 233.73 487.538 240.472 487.538 248.788C487.538 257.105 494.278 263.846 502.592 263.846Z" fill="#43415C"/>
<path d="M465.127 377.626L458.535 377.625L455.399 352.194L465.128 352.194L465.127 377.626Z" fill="#FFB8B8"/>
<path d="M453.827 375.741H466.539V383.747H445.823C445.823 381.624 446.666 379.588 448.167 378.086C449.668 376.585 451.704 375.741 453.827 375.741Z" fill="#43415C"/>
<path d="M454.837 373.945L448.548 371.971L453.168 346.768L462.45 349.681L454.837 373.945Z" fill="#FFB8B8"/>
<path d="M444.619 368.764L456.749 372.571L454.352 380.21L434.586 374.006C435.221 371.98 436.636 370.289 438.517 369.306C440.399 368.323 442.594 368.128 444.619 368.764Z" fill="#43415C"/>
<path d="M506.625 319.976C506.473 318.695 506.199 317.431 505.808 316.201L504.577 314.652L501.372 310.63L501.233 310.635C500.996 310.646 500.012 310.699 498.49 310.818H498.474C497.533 310.893 496.382 310.99 495.076 311.114C494.732 311.151 494.372 311.183 494.001 311.221V316.836H500.722C501.048 316.836 501.364 316.955 501.609 317.171C501.854 317.387 502.013 317.684 502.055 318.008C502.06 318.067 502.066 318.121 502.066 318.18C502.066 318.537 501.924 318.879 501.672 319.131C501.42 319.383 501.078 319.524 500.722 319.525H461.686C461.189 319.855 460.711 320.214 460.256 320.6C458.881 321.665 457.89 323.149 457.433 324.827C455.154 334.852 450.998 353.545 449.771 359.036C449.683 359.45 449.703 359.88 449.83 360.283C449.957 360.687 450.187 361.05 450.497 361.338C450.726 361.552 450.995 361.718 451.288 361.828L456.138 363.645C456.337 363.719 456.545 363.768 456.756 363.79C456.783 363.79 456.804 363.796 456.831 363.796C456.881 363.8 456.932 363.802 456.982 363.801C457.472 363.799 457.951 363.649 458.354 363.371C458.758 363.093 459.069 362.699 459.245 362.242L463.074 352.196L468.972 336.707L471.306 330.582C474.01 331.216 496.7 336.239 504.297 328.145C505.047 327.348 505.638 326.415 506.039 325.397C506.679 323.666 506.88 321.804 506.625 319.976Z" fill="#43415C"/>
<path d="M513.206 321.439C513.088 320.961 512.954 320.466 512.798 319.966L508.362 314.394L508.222 314.399C507.942 314.416 506.615 314.485 504.577 314.652C502.265 314.846 499.033 315.158 495.404 315.647C495.297 315.658 495.184 315.674 495.076 315.69C494.721 315.739 494.361 315.787 494.001 315.841V316.836H500.722C501.048 316.836 501.364 316.955 501.609 317.171C501.854 317.387 502.013 317.684 502.055 318.008C502.06 318.067 502.066 318.121 502.066 318.18C502.066 318.537 501.924 318.879 501.672 319.131C501.42 319.383 501.078 319.524 500.722 319.525H476.967C475.93 319.863 474.929 320.218 473.972 320.6C468.951 322.59 465.192 325.198 464.423 328.592C464.165 329.732 463.88 330.985 463.579 332.319C462.461 337.277 461.1 343.349 459.869 348.867V348.872C459.616 350.012 459.364 351.12 459.122 352.196C458.095 356.821 457.224 360.741 456.761 362.801C456.751 362.86 456.74 362.914 456.729 362.973V362.984C456.675 363.4 456.727 363.824 456.88 364.215L456.885 364.221V364.226C457.033 364.601 457.273 364.932 457.584 365.189C457.792 365.36 458.026 365.496 458.278 365.592L463.128 367.41C463.398 367.511 463.683 367.564 463.972 367.566C464.376 367.567 464.773 367.465 465.128 367.27C465.636 366.994 466.029 366.546 466.235 366.006L476.677 338.6L478.295 334.346C481 334.981 503.69 339.998 511.287 331.91C512.788 330.285 513.644 328.168 513.696 325.957C513.749 324.435 513.584 322.914 513.206 321.439Z" fill="#43415C"/>
<path d="M512.609 273.995C512.524 273.893 512.432 273.791 512.335 273.694C510.903 272.188 509.135 271.043 507.175 270.352C505.215 269.661 503.12 269.444 501.06 269.719C499.264 269.956 497.484 270.306 495.732 270.768C493.469 271.35 491.397 272.512 489.721 274.14C488.415 275.407 487.387 276.931 486.701 278.615C486.015 280.3 485.686 282.109 485.737 283.928C485.758 284.665 485.763 285.418 485.753 286.181C485.753 286.536 485.747 286.897 485.742 287.257H491.043C491.273 287.256 491.503 287.283 491.726 287.338C492.373 287.492 492.949 287.86 493.362 288.382C493.774 288.904 493.999 289.549 494.001 290.215V315.233C494.361 315.335 494.721 315.437 495.076 315.545C495.189 315.583 495.297 315.615 495.404 315.647C495.528 315.685 495.651 315.722 495.77 315.76C496.861 316.099 497.927 316.457 498.969 316.836H500.722C501.048 316.836 501.364 316.955 501.609 317.171C501.854 317.387 502.013 317.684 502.055 318.008C502.421 318.153 502.775 318.298 503.125 318.444C504.367 318.96 505.544 319.476 506.625 319.976C508.082 320.643 509.378 321.278 510.464 321.832C510.806 322.006 511.183 322.098 511.566 322.101C512.07 322.099 512.559 321.937 512.964 321.638C513.049 321.576 513.129 321.51 513.206 321.439C513.494 321.169 513.712 320.833 513.84 320.46C513.968 320.087 514.004 319.688 513.943 319.299C513.388 315.074 513.226 310.807 513.459 306.553C513.61 302.977 513.932 299.309 514.352 295.765C514.577 293.845 514.83 291.963 515.094 290.15C515.346 288.419 515.615 286.757 515.879 285.186C516.224 283.195 516.109 281.151 515.543 279.211C514.976 277.271 513.973 275.487 512.609 273.995Z" fill="#10A8C8"/>
<path d="M490.57 274.436C490.294 274.318 490.011 274.219 489.721 274.14C488.288 273.754 486.764 273.897 485.428 274.541C484.091 275.186 483.031 276.29 482.441 277.652L478.747 286.181L478.284 287.257H491.043C491.273 287.256 491.503 287.283 491.726 287.338L492.156 286.343L493.791 282.567C494.44 281.062 494.466 279.36 493.862 277.836C493.258 276.311 492.074 275.088 490.57 274.436Z" fill="#10A8C8"/>
<path d="M502.042 265.52C509.335 265.52 515.248 259.606 515.248 252.311C515.248 245.016 509.335 239.103 502.042 239.103C494.749 239.103 488.836 245.016 488.836 252.311C488.836 259.606 494.749 265.52 502.042 265.52Z" fill="#FFB8B8"/>
<path d="M488.599 245.822C494.854 249.641 501.906 251.965 509.206 252.613L507.033 250.01C508.615 250.595 510.279 250.925 511.964 250.989C513.647 250.963 515.411 250.315 516.366 248.929C516.792 248.24 517.045 247.458 517.104 246.649C517.162 245.841 517.024 245.031 516.702 244.288C516.04 242.805 515.01 241.516 513.709 240.544C511.404 238.72 508.683 237.495 505.789 236.978C502.896 236.461 499.919 236.667 497.125 237.58C495.208 238.153 493.492 239.254 492.172 240.758C490.92 242.303 488.51 243.679 489.151 245.561L488.599 245.822Z" fill="#43415C"/>
<path d="M504.263 235.162C500.098 230.938 495.057 227.677 489.496 225.611C485.927 224.289 482.042 223.472 478.31 224.223C474.578 224.974 471.049 227.556 470.008 231.218C469.157 234.213 470.036 237.437 471.357 240.256C472.678 243.075 474.442 245.689 475.51 248.613C476.6 251.597 476.928 254.806 476.464 257.948C476 261.091 474.758 264.068 472.852 266.609C470.946 269.15 468.436 271.174 465.549 272.498C462.662 273.823 459.49 274.405 456.321 274.192C459.988 274.684 463.368 276.407 466.952 277.325C470.535 278.242 474.765 278.18 477.429 275.612C480.247 272.894 480.303 268.477 480.167 264.564C479.964 258.748 479.762 252.932 479.559 247.115C479.456 244.149 479.368 241.088 480.437 238.319C481.507 235.551 484.048 233.127 487.016 233.152C489.264 233.171 491.255 234.534 493.058 235.877C494.862 237.221 496.771 238.655 499.011 238.855C501.251 239.055 503.808 237.397 503.641 235.153L504.263 235.162Z" fill="#43415C"/>
<path d="M515.094 290.15L507.555 290.355L507.007 295.652L506.883 296.878L495.076 302.181L494.001 302.665V312.092L495.076 311.786L498.474 310.818H498.49L513.459 306.553L513.631 306.505C514.84 306.155 515.905 305.425 516.666 304.422C517.428 303.419 517.845 302.198 517.857 300.938L517.895 294.684L517.927 290.075L515.094 290.15Z" fill="#FFB8B8"/>
<path d="M517.545 279.674C517.445 278.037 516.698 276.506 515.469 275.42C514.241 274.333 512.631 273.779 510.994 273.879C509.357 273.98 507.827 274.727 506.74 275.956C505.654 277.185 505.1 278.795 505.2 280.432L506.023 293.856C506.045 294.209 506.145 294.553 506.315 294.863C506.485 295.174 506.721 295.443 507.007 295.652C507.461 295.991 508.022 296.157 508.588 296.12L514.352 295.765L516.099 295.657C516.417 295.642 516.729 295.562 517.016 295.422C517.302 295.282 517.557 295.086 517.766 294.845C517.812 294.794 517.855 294.74 517.895 294.684C518.237 294.226 518.404 293.662 518.368 293.092L517.545 279.674Z" fill="#10A8C8"/>
<path d="M495.77 315.76H495.076V315.69C494.721 315.738 494.361 315.787 494.001 315.841V316.836H498.969C497.926 316.459 496.859 316.101 495.77 315.76ZM495.77 315.76H495.076V315.69C494.721 315.738 494.361 315.787 494.001 315.841V316.836H498.969C497.926 316.459 496.859 316.101 495.77 315.76ZM500.722 315.76H495.076V290.215C495.074 289.34 494.788 288.49 494.262 287.792C493.735 287.093 492.997 286.585 492.156 286.343C491.795 286.234 491.42 286.179 491.043 286.181H443.191C442.121 286.183 441.096 286.608 440.34 287.364C439.585 288.12 439.159 289.145 439.158 290.215V316.567C439.158 317.636 439.583 318.662 440.34 319.418C441.096 320.175 442.121 320.6 443.191 320.6H500.722C501.317 320.599 501.892 320.379 502.335 319.981C502.778 319.583 503.059 319.036 503.125 318.444C503.136 318.356 503.141 318.268 503.141 318.18C503.14 317.539 502.885 316.924 502.431 316.47C501.978 316.016 501.363 315.761 500.722 315.76ZM502.066 318.18C502.066 318.537 501.924 318.879 501.672 319.131C501.42 319.383 501.078 319.524 500.722 319.525H443.191C442.406 319.524 441.654 319.212 441.1 318.658C440.545 318.103 440.234 317.351 440.233 316.567V290.215C440.234 289.43 440.545 288.678 441.1 288.124C441.654 287.569 442.406 287.257 443.191 287.257H491.043C491.274 287.256 491.503 287.283 491.726 287.338C492.373 287.492 492.949 287.86 493.362 288.382C493.774 288.904 493.999 289.549 494.001 290.215V316.836H500.722C501.048 316.836 501.364 316.955 501.609 317.171C501.854 317.387 502.013 317.684 502.055 318.008C502.06 318.067 502.066 318.121 502.066 318.18ZM495.77 315.76H495.076V315.69C494.721 315.738 494.361 315.787 494.001 315.841V316.836H498.969C497.926 316.459 496.859 316.101 495.77 315.76Z" fill="#C1BDF0"/>
<path d="M467.115 306.618C468.897 306.618 470.341 305.174 470.341 303.392C470.341 301.609 468.897 300.165 467.115 300.165C465.334 300.165 463.889 301.609 463.889 303.392C463.889 305.174 465.334 306.618 467.115 306.618Z" fill="#10A8C8"/>
<path d="M178.967 38.3813C178.955 38.627 178.962 38.8732 178.989 39.1178L162.105 53.2908L157.07 51.4674L153.326 58.7081L164.334 63.9491L182.792 43.2313C183.724 43.4004 184.685 43.2817 185.548 42.891C186.411 42.5002 187.135 41.856 187.623 41.0439C188.111 40.2318 188.34 39.2904 188.28 38.3448C188.22 37.3992 187.874 36.4943 187.287 35.7504C186.7 35.0065 185.901 34.4589 184.996 34.1804C184.09 33.9019 183.122 33.9057 182.218 34.1913C181.315 34.4769 180.52 35.0307 179.94 35.7792C179.359 36.5276 179.019 37.4352 178.967 38.3812L178.967 38.3813Z" fill="#FFB8B8"/>
<path d="M156.322 62.1812L140.018 56.2949C138.521 55.7545 137.3 54.6415 136.624 53.2007C135.948 51.7599 135.871 50.1094 136.411 48.6123C136.952 47.1151 138.064 45.8939 139.505 45.2174C140.945 44.5409 142.596 44.4644 144.092 45.0048L160.397 50.8911C160.644 50.9803 160.871 51.1172 161.065 51.2942C161.259 51.4711 161.416 51.6846 161.528 51.9224C161.64 52.1601 161.703 52.4176 161.715 52.68C161.728 52.9424 161.688 53.2046 161.599 53.4517L158.883 60.9787C158.702 61.4773 158.331 61.8839 157.851 62.1093C157.371 62.3347 156.821 62.3606 156.322 62.1812V62.1812Z" fill="#CCCCCC"/>
<path d="M144.382 119.526L149.83 119.525L152.422 98.5029L144.38 98.5035L144.382 119.526Z" fill="#FFB8B8"/>
<path d="M160.339 124.586L143.214 124.587L143.214 117.969L153.722 117.968C155.477 117.968 157.16 118.665 158.401 119.906C159.642 121.147 160.339 122.831 160.339 124.586L160.339 124.586Z" fill="#43415C"/>
<path d="M130.915 112.485L135.372 115.62L149.582 99.9146L143.004 95.2885L130.915 112.485Z" fill="#FFB8B8"/>
<path d="M140.521 124.73L126.512 114.878L130.318 109.464L138.914 115.51C140.35 116.519 141.326 118.058 141.627 119.787C141.928 121.516 141.531 123.294 140.521 124.73L140.521 124.73Z" fill="#43415C"/>
<path d="M156.305 81.6566C156.305 81.6566 169.903 80.0519 167.462 88.8779C165.021 97.7039 137.825 105.326 137.825 105.326L156.305 81.6566Z" fill="#FFB8B8"/>
<path d="M146.945 36.622C152.974 36.622 157.862 31.7335 157.862 25.7032C157.862 19.6729 152.974 14.7844 146.945 14.7844C140.916 14.7844 136.029 19.6729 136.029 25.7032C136.029 31.7335 140.916 36.622 146.945 36.622Z" fill="#FFB8B8"/>
<path d="M112.132 103.519C105.921 96.2845 103.747 85.1814 113.653 75.9469C116.099 73.7222 118.869 71.8822 121.868 70.4897L129.852 48.1576C130.681 45.8256 132.202 43.802 134.211 42.3566C136.22 40.9113 138.621 40.113 141.095 40.0683C143.498 39.9646 145.873 40.6073 147.895 41.9082C149.918 43.2091 151.488 45.1043 152.39 47.3336C153.365 49.6016 153.477 52.148 152.704 54.4926C150.327 61.8954 147.206 69.0381 143.388 75.811L143.801 79.1143L163.981 80.9082L163.793 81.2143C163.695 81.374 153.818 96.4252 141.184 106.416C136.864 109.831 132.396 111.247 128.18 111.247C121.787 111.246 115.972 107.991 112.132 103.519Z" fill="#CCCCCC"/>
<path d="M110.228 29.1287C112.159 26.8269 112.987 23.8161 113.654 20.8859C114.708 16.2497 115.524 11.4557 117.866 7.31842C120.209 3.18117 124.514 -0.246965 129.26 0.0139779C133.979 0.273431 137.795 4.07117 139.82 8.39223C140.311 8.20171 140.836 8.11636 141.361 8.14171C141.887 8.16705 142.401 8.30252 142.871 8.53935C144.33 9.33887 144.876 11.6114 143.661 12.749C144.939 12.1404 146.331 11.8076 147.746 11.7723C149.161 11.737 150.567 12 151.874 12.5442C153.554 13.2597 155.004 14.4248 156.065 15.9115C157.126 17.3981 157.756 19.1486 157.887 20.9705C157.938 21.7099 157.836 22.452 157.589 23.1506C157.341 23.8492 156.953 24.4895 156.448 25.0319C154.353 27.1885 151.391 26.4446 148.757 25.8952C146.269 25.3763 143.239 25.2362 141.837 27.6072C141.285 28.5952 141.13 29.7567 141.405 30.8548C141.942 33.2216 143.694 34.8703 145.394 36.4481L145.672 36.9647C139.67 38.1352 133.117 34.0357 131.543 28.1263C129.968 22.2168 133.614 15.3994 139.401 13.428C139.016 13.44 138.635 13.3489 138.297 13.1641C137.958 12.9793 137.676 12.7076 137.478 12.3769C137.279 12.0462 137.173 11.6687 137.17 11.2832C137.166 10.8977 137.266 10.5184 137.458 10.1843C135.856 9.28655 134.043 8.83407 132.207 8.87382C129.217 9.07 126.63 11.1986 125.074 13.7596C123.518 16.3207 122.814 19.2933 122.1 22.2038C121.386 25.1143 120.614 28.0805 118.95 30.5729C117.798 32.2992 116.258 33.7322 114.454 34.7575C112.65 35.7829 110.631 36.3722 108.558 36.4786C106.486 36.5849 104.417 36.2052 102.517 35.3699C100.618 34.5346 98.9395 33.2667 97.6167 31.6675C99.7072 32.6813 102.072 32.9821 104.35 32.5236C106.627 32.065 108.692 30.8726 110.228 29.1287Z" fill="#43415C"/>
<path d="M190.406 58.885C199.169 58.885 206.274 51.7792 206.274 43.0137C206.274 34.2483 199.169 27.1425 190.406 27.1425C181.642 27.1425 174.538 34.2483 174.538 43.0137C174.538 51.7792 181.642 58.885 190.406 58.885Z" fill="#10A8C8"/>
<path d="M189.918 51.9396C189.854 51.8756 189.803 51.7996 189.768 51.7158C189.733 51.6321 189.716 51.5423 189.716 51.4517V33.8857C189.716 33.7027 189.789 33.5272 189.918 33.3978C190.047 33.2684 190.223 33.1957 190.406 33.1957C190.589 33.1957 190.764 33.2684 190.893 33.3978C191.023 33.5272 191.096 33.7027 191.096 33.8857V51.4517C191.095 51.5882 191.055 51.7216 190.979 51.835C190.903 51.9485 190.796 52.0369 190.67 52.0892C190.544 52.1414 190.405 52.1551 190.271 52.1284C190.137 52.1018 190.014 52.0361 189.918 51.9396H189.918Z" fill="white"/>
<path d="M181.137 43.1567C181.04 43.0602 180.975 42.9372 180.948 42.8034C180.922 42.6695 180.935 42.5308 180.987 42.4047C181.04 42.2787 181.128 42.1709 181.242 42.0951C181.355 42.0193 181.488 41.9788 181.625 41.9788H199.187C199.37 41.9788 199.545 42.0515 199.675 42.1809C199.804 42.3103 199.877 42.4858 199.877 42.6688C199.877 42.8517 199.804 43.0272 199.675 43.1566C199.545 43.286 199.37 43.3587 199.187 43.3587H181.625C181.534 43.3589 181.444 43.3411 181.361 43.3064C181.277 43.2718 181.201 43.2209 181.137 43.1567Z" fill="white"/>
<path d="M179.514 53.6295C179.399 53.8469 179.301 54.0729 179.221 54.3056L157.915 59.9568L154.132 56.1657L147.666 61.128L155.403 70.5519L180.915 59.6458C181.687 60.1951 182.608 60.4964 183.555 60.5096C184.502 60.5228 185.431 60.2473 186.218 59.7196C187.004 59.192 187.612 58.4373 187.96 57.5559C188.307 56.6745 188.378 55.7081 188.163 54.7853C187.948 53.8626 187.457 53.0271 186.756 52.3901C186.055 51.7531 185.177 51.3447 184.238 51.2192C183.299 51.0937 182.344 51.2571 181.5 51.6877C180.656 52.1182 179.963 52.7955 179.514 53.6295L179.514 53.6295Z" fill="#FFB8B8"/>
<path d="M148.903 65.5458L136.646 53.2861C136.087 52.7292 135.644 52.0675 135.341 51.339C135.038 50.6104 134.882 49.8293 134.881 49.0403C134.881 48.2513 135.036 47.4699 135.337 46.7409C135.639 46.0118 136.081 45.3494 136.639 44.7915C137.197 44.2336 137.859 43.7912 138.588 43.4895C139.317 43.1879 140.098 43.033 140.887 43.0337C141.676 43.0344 142.457 43.1906 143.185 43.4935C143.913 43.7963 144.575 44.2399 145.132 44.7987L157.389 57.0584C157.574 57.2441 157.722 57.4646 157.822 57.7073C157.923 57.95 157.974 58.2101 157.974 58.4728C157.974 58.7355 157.923 58.9956 157.822 59.2383C157.722 59.481 157.574 59.7015 157.389 59.8872L151.732 65.5458C151.356 65.9203 150.847 66.1306 150.317 66.1306C149.787 66.1306 149.278 65.9203 148.903 65.5458V65.5458Z" fill="#CCCCCC"/>
</g>
<defs>
<clipPath id="clip0">
<rect width="531" height="384" fill="white"/>
</clipPath>
</defs>
</svg>
